<svg width="152" height="89" viewBox="0 0 152 89" fill="none" xmlns="http://www.w3.org/2000/svg">
<path fill-rule="evenodd" clip-rule="evenodd" d="M146.213 45.7535C150.033 54.598 151.998 64.0775 151.998 73.6507H151.965C151.988 73.9737 152 74.2997 152 74.6283C152 82.4285 145.408 88.7518 137.276 88.7518C129.144 88.7518 122.552 82.4285 122.552 74.6283C122.552 74.2997 122.563 73.9737 122.586 73.6507H122.547C122.486 49.1002 101.718 29.2163 76.1093 29.2163C50.5003 29.2163 29.733 49.1002 29.6718 73.6507H29.6476C29.6656 73.9382 29.6748 74.228 29.6748 74.5199C29.6748 82.38 23.0319 88.7519 14.8374 88.7519C6.64293 88.7519 0 82.38 0 74.5199C0 74.228 0.00915887 73.9382 0.027216 73.6507H1.86605e-05C1.54085e-05 64.0775 1.96579 54.598 5.7851 45.7536C9.60441 36.9091 15.2025 28.8728 22.2596 22.1035C29.3168 15.3342 37.6949 9.96455 46.9155 6.30104C56.1362 2.63754 66.0188 0.751956 75.9992 0.751953C85.9795 0.751953 95.8621 2.63753 105.083 6.30104C114.303 9.96454 122.682 15.3342 129.739 22.1035C136.796 28.8728 142.394 36.9091 146.213 45.7535Z" fill="white" fill-opacity="0.5"/>
</svg>
